<svg xmlns="http://www.w3.org/2000/svg" xmlns:xlink="http://www.w3.org/1999/xlink" width="900"
				 class="img-fluid w-50 h-100"
				 height="900"
				 viewBox="0 50 900 1000"
				 id="circle-svg">
				<defs>
					<filter id="CircleSvg"
							x="0"
							y="0"
							width="970.999"
							height="969"
							filterUnits="userSpaceOnUse">
						<feOffset dy="3"
								  input="SourceAlpha" />
						<feGaussianBlur stdDeviation="5"
										result="blur" />
						<feFlood flood-opacity="0.38" />
						<feComposite operator="in"
									 in2="blur" />
						<feComposite in="SourceGraphic" />
					</filter>
				</defs>
				<g transform="matrix(1, 0, 0, 1, 0, 0)"
				   filter="url(#CircleSvg)">
					<path id="CircleSvg-2"
						  data-name="Circle Svg"
						  d="M3593.5-5656a649.735,649.735,0,0,1-65.385-3.3,641.07,641.07,0,0,1-63.5-9.69c-20.6-4.216-41.223-9.518-61.286-15.758-19.838-6.17-39.606-13.406-58.754-21.5-18.968-8.023-37.776-17.083-55.9-26.929-17.994-9.775-35.734-20.553-52.727-32.033-16.91-11.424-33.473-23.81-49.231-36.814-15.719-12.973-31-26.86-45.413-41.275s-28.3-29.7-41.274-45.414c-13.005-15.759-25.391-32.323-36.814-49.231-11.48-16.992-22.257-34.732-32.032-52.727-9.845-18.124-18.906-36.932-26.929-55.9-8.1-19.147-15.334-38.915-21.5-58.754-6.24-20.063-11.542-40.683-15.758-61.287a641.1,641.1,0,0,1-9.69-63.5,649.76,649.76,0,0,1-3.3-65.385,648.371,648.371,0,0,1,4.941-79.885,639.325,639.325,0,0,1,14.429-76.939,637.028,637.028,0,0,1,23.325-73.4A638.7,638.7,0,0,1,3028.325-6595H3895v863.608a638.713,638.713,0,0,1-69.674,32.08,636.835,636.835,0,0,1-73.875,23.66,639.1,639.1,0,0,1-77.476,14.638c-13.181,1.654-26.606,2.915-39.9,3.747C3620.658-5656.425,3607.006-5656,3593.5-5656Z"
						  transform="translate(-2939 6607)"
						  fill="#7a1818" />
				</g>
			</svg>
