<?xml version="1.0" encoding="utf-8"?>
<!-- Generator: Adobe Illustrator 24.1.1, SVG Export Plug-In . SVG Version: 6.00 Build 0)  -->
<svg version="1.1" id="svg" xmlns="http://www.w3.org/2000/svg" xmlns:xlink="http://www.w3.org/1999/xlink" x="0px" y="0px"
	 viewBox="0 0 400 127.8" style="enable-background:new 0 0 400 127.8;" xml:space="preserve">
<style type="text/css">
	.st0{fill-rule:evenodd;clip-rule:evenodd;fill:#FCFCFC;}
	.st1{fill-rule:evenodd;clip-rule:evenodd;fill:#EC0404;}
</style>
<path id="path0" class="st0" d="M43.1,10.7c-2,0.5-2,0.2-1.9,14c0.1,13,0,12.5,1.4,13.2c0.7,0.3,1.1,0.3,67.4,0.4
	c51.2,0.1,66.9,0.1,67.4,0.3c0.4,0.1,1.5,0.2,2.6,0.2c3.9,0,5.1,0.9,4.1,2.9c-1,1.9-5.2,6.8-5.9,6.8c-0.1,0-0.7,0.5-1.4,1.1
	c-0.7,0.6-1.3,1.1-1.4,1.1s-0.4,0.3-0.8,0.6c-0.3,0.3-0.9,0.7-1.1,0.9c-0.3,0.2-0.8,0.6-1.2,0.8c-0.4,0.3-1.3,1-2.2,1.6
	c-0.8,0.6-1.8,1.3-2.2,1.6c-0.4,0.3-1,0.7-1.3,1c-2.4,1.6-3.1,2.4-3.1,3.9c0,1.8,0.4,2.3,3.5,3.8c1.2,0.6,2.4,1.2,2.7,1.4
	c0.2,0.2,0.8,0.5,1.2,0.8c1.4,0.8,6.1,3.9,6.8,4.5c0.3,0.3,0.7,0.6,0.8,0.6c0.1,0,1,0.8,1.9,1.7c1,0.9,1.8,1.7,1.9,1.7
	c0.3,0,1.8,1.6,2.5,2.5c0.3,0.5,0.8,1.1,1.1,1.3c0.9,0.9,2.5,3.5,3,5.1c0.8,2.5-1.1,4.4-4.6,4.4c-0.7,0-1.6,0.1-2,0.2
	c-0.5,0.1-3.9,0.2-9,0.3c-7.9,0.1-8.3,0.1-9,0.5c-1.4,0.6-1.3-0.1-1.3,13.6c0,13.4-0.1,12.7,1.2,13.4c0.8,0.5,30.3,0.6,32.8,0.2
	c0.8-0.1,2.5-0.4,3.7-0.7c11.3-2.1,19.4-8.1,22.1-16.5c0.2-0.6,0.4-1.3,0.5-1.5c0.1-0.2,0.2-0.6,0.2-0.8c0-0.3,0.2-0.8,0.3-1.2
	s0.2-1.3,0.2-2.1c0-0.9,0.1-1.9,0.3-2.4c0.3-1,0.3-3.4-0.1-4c-0.1-0.2-0.2-1.1-0.2-2c0-1.4-0.3-3.1-0.7-4.2
	c-0.1-0.2-0.3-0.9-0.5-1.6c-0.7-2.4-0.9-2.8-2.5-6.1c-1-2-2-3.7-2.4-4.2c-0.4-0.5-0.7-0.9-0.7-1c0-0.1-0.4-0.6-1-1.2
	c-0.5-0.6-1.1-1.3-1.2-1.6c-0.3-0.6-4.7-4.8-5.6-5.4c-1.1-0.7-1.1-0.8,1.1-3c1.1-1.1,2.2-2.3,2.4-2.7c0.2-0.4,0.7-0.9,1-1.3
	c1.8-1.8,5.3-8.7,5.3-10.5c0-0.2,0.1-0.6,0.2-1c0.4-1,0.4-10.5,0-12.1c-0.4-1.5-1-3.7-1.3-4.4c-1-2.1-2.2-4.5-2.8-5.2
	c-0.4-0.5-0.9-1.1-1.1-1.5c-0.3-0.4-0.8-0.9-1.1-1.1c-0.4-0.3-1-0.7-1.3-1c-3.2-2.7-9.1-5.1-13.9-5.7c-0.6-0.1-1.5-0.2-2-0.3
	C194.5,10.4,44.3,10.4,43.1,10.7 M229.6,10.7c-0.8,0.2-1.4,0.6-1.8,1.3c-0.2,0.4-0.3,5-0.3,38.2c0,41.7-0.1,38.3,1.1,39.1l0.6,0.4
	l12.1,0c13.6,0,12.9,0.1,13.6-1.3c0.3-0.6,0.3-1,0.4-9.4l0.1-8.8l3.7,7.3c2,4,3.7,7.6,3.8,7.8c0.1,0.3,1.7,3.7,3.7,7.7
	c2,3.9,3.7,7.5,3.8,7.9c0.3,1,7,14.4,7.5,15.1c0.8,1.1,0.3,1.1,18.6,1c15.1,0,16.4-0.1,16.9-0.3c0.3-0.2,0.4-0.3,0.3-0.3
	c-0.1,0-0.2-0.1-0.2-0.2c-0.1-1.7-0.3-2.6-0.6-3.7c-0.2-0.7-0.4-1.7-0.4-2.1c-0.1-0.8-7.6-16-8.6-17.6c-0.3-0.4-2.5-4.7-4.9-9.6
	c-2.4-4.9-4.7-9.2-5-9.7c-0.3-0.5-0.6-0.9-0.6-1c0-0.1-1-2.1-2.3-4.6c-4.4-8.7-4.9-9.8-4.9-10c0-0.3,2.5-5.2,3.2-6.3
	c0.3-0.5,1.1-1.9,1.7-3.2c0.6-1.2,1.3-2.5,1.5-2.8c0.2-0.3,1-1.8,1.8-3.4c0.8-1.6,1.7-3.2,1.9-3.6c0.3-0.4,1-1.7,1.6-2.9
	c0.6-1.2,1.3-2.5,1.5-2.8c0.2-0.3,1-1.7,1.7-3.1c0.7-1.4,1.4-2.7,1.6-2.9s0.9-1.6,1.8-3.3c0.8-1.6,1.7-3.3,2-3.7
	c2.9-4.3,3.6-8.3,1.5-9.2c-0.7-0.3-30.1-0.5-31.6-0.2c-1.3,0.3-1.6,0.6-2.9,3.2c-0.6,1.3-1.4,2.7-1.6,3c-0.3,0.4-0.6,1-0.8,1.3
	c-4.3,8.7-5.8,11.4-6.1,12c-0.3,0.4-1.9,3.4-3.6,6.8c-1.7,3.4-3.3,6.5-3.6,6.9c-0.3,0.4-0.9,1.6-1.4,2.6l-0.9,1.8l-0.1-17.9
	c-0.1-20.3,0-18.8-1.4-19.6C253.2,10.6,231.3,10.3,229.6,10.7 M74.3,39.7c-0.9,0.2-1.5,0.8-1.7,1.7c-0.3,1-0.3,72.9,0,73.8
	c0.3,1,0.9,1.5,1.9,1.7c1.8,0.4,23.6,0.1,24.3-0.2c1.5-0.7,1.3,1.9,1.4-28.3l0.1-26.7l1,1.5c0.5,0.8,1,1.5,1.1,1.6
	c0.1,0.1,0.6,0.7,1,1.3c1.8,2.5,2,2.8,2.4,3.2c0.2,0.2,0.8,1,1.3,1.8c0.5,0.7,1.1,1.6,1.4,1.9c0.3,0.3,0.8,1.1,1.3,1.7
	c0.4,0.6,1.1,1.5,1.5,2c0.4,0.5,1.2,1.6,1.8,2.5c2.5,3.7,2.9,4,4.6,4c1.4,0,2.1-0.3,2.5-1c0.2-0.3,0.5-0.8,0.8-1.1
	c0.3-0.3,0.8-1,1.1-1.4c0.5-0.8,1.2-1.7,2.5-3.4c0.3-0.4,0.8-1.1,1.1-1.4c0.3-0.3,0.8-1,1.1-1.5c0.3-0.5,0.7-1,0.9-1.2
	c0.2-0.1,0.4-0.4,0.5-0.7c0.1-0.3,0.5-0.8,0.9-1.2c0.3-0.4,0.9-1.1,1.2-1.5c0.3-0.4,0.9-1.2,1.3-1.7c0.4-0.5,0.9-1.2,1.2-1.6
	c0.3-0.4,0.8-1,1.1-1.4c0.3-0.4,0.8-1.1,1-1.5c0.9-1.6,0.9-2.1,0.9,11.9c0,14.1,0,14,1,14.8c0.5,0.3,0.6,0.3,12.7,0.4
	c13.7,0,13,0.1,13.7-1.2c0.5-1,0.5-46.4,0-47.5c-0.7-1.4,0.4-1.3-16.8-1.4c-18.2-0.1-17.1-0.2-18.8,2.3c-0.4,0.6-1.1,1.6-1.6,2.1
	c-0.4,0.6-1,1.4-1.3,1.8c-0.3,0.4-0.8,1.1-1.1,1.5c-0.3,0.4-1.1,1.4-1.7,2.3c-0.6,0.8-1.3,1.7-1.5,1.9c-0.2,0.2-0.7,0.8-1,1.3
	c-1.5,2.3-1.7,2.4-2.6,0.9c-0.4-0.6-0.9-1.4-1.2-1.7c-0.8-1-1.9-2.3-2.3-3c-0.2-0.3-0.6-0.8-0.8-1c-0.2-0.2-0.8-1.1-1.3-1.8
	c-0.5-0.8-1.2-1.7-1.4-2c-0.3-0.3-0.7-0.9-1-1.4c-1.6-2.3-1.9-2.6-2.8-2.9C104.8,39.5,75.5,39.4,74.3,39.7"/>
<path id="path1" class="st1" d="M136.9,89.5c0.1,0.1-0.1,0.3-0.3,0.5c-0.9,0.7-0.9,1-0.9,13.7c0,11.3,0.1,11.6,0.4,12.1
	c0.8,1.3,0.1,1.3,13.1,1.3c12.7,0.1,12.9,0,13.7-0.9c0.2-0.2,0.4-0.4,0.5-0.3c0.1,0.1,0.1,0,0-0.2c-0.2-0.4-0.3-24.1-0.1-24.6
	c0.1-0.2-0.1-0.5-0.5-0.9l-0.6-0.6l-12.2,0c-7.7,0-12.4-0.1-12.6-0.2C137,89.4,136.8,89.4,136.9,89.5 M228.7,89.4
	c0.1,0.1-0.1,0.4-0.3,0.6c-0.9,0.9-0.9,1-0.9,13.2c0,13.5,0,13.3,2.1,13.7c1.8,0.4,23.6,0.1,24.3-0.2c1.4-0.7,1.3-0.1,1.4-13
	c0.1-12.5,0-12.7-0.9-13.6l-0.5-0.5l-12.3,0c-8.9,0-12.4,0-12.7-0.2C228.7,89.4,228.6,89.3,228.7,89.4 M314.6,89.5
	c-1.3,0.2-1.8,0.6-2.1,1.8c-0.2,0.7-0.3,17.7-0.1,18.3c0,0.1,0.1,0.6,0.2,1c0.1,0.4,0.2,1.3,0.4,2.1c0.3,1.1,0.4,2.1,0.5,3.7
	c0,0.1,0.1,0.2,0.2,0.2c0.1,0,0,0.1-0.2,0.2c-1.1,0.6,24,0.6,25.2,0c1.4-0.7,1.3-0.1,1.3-13.5c0-13.5,0.1-12.8-1.4-13.5
	C337.9,89.4,316.6,89.2,314.6,89.5"/>
</svg>
